<svg width="14" height="14" viewBox="0 0 14 14" fill="none" xmlns="http://www.w3.org/2000/svg">
<path d="M12.8 10.8809L12.1333 11.6102C11.7797 11.997 11.3001 12.2142 10.8001 12.2142C10.3001 12.2142 9.82058 11.997 9.46697 11.6102C9.11286 11.2243 8.63337 11.0076 8.1335 11.0076C7.63363 11.0076 7.15414 11.2243 6.80003 11.6102M0.800049 12.2142H1.91641C2.24253 12.2142 2.40559 12.2142 2.55904 12.1774C2.69509 12.1447 2.82515 12.0908 2.94445 12.0177C3.079 11.9353 3.1943 11.82 3.42491 11.5894L11.8001 3.2142C12.3524 2.66192 12.3524 1.76649 11.8001 1.2142C11.2478 0.661916 10.3524 0.661917 9.80007 1.2142L1.42489 9.58936C1.19429 9.81996 1.07898 9.93526 0.996529 10.0698C0.923424 10.1891 0.869551 10.3192 0.836889 10.4552C0.800049 10.6087 0.800049 10.7717 0.800049 11.0979V12.2142Z" stroke="#FEFEFE" stroke-width="1.6" stroke-linecap="round" stroke-linejoin="round"/>
</svg>
